{  "asset": {    "version": "2.0",    "generator": "THREE.GLTFExporter"  },  "scenes": [    {      "name": "AuxScene",      "nodes": [        1      ]    }  ],  "scene": 0,  "nodes": [    {      "name": "anubis_head1",      "extras": {        "originalName": "anubis_head1",        "transformData": {          "inheritType": 1,          "eulerOrder": "ZYX",          "scalingPivot": [            2.858925843511404,            117.87831115722656,            -0.3320894241333008          ],          "rotationPivot": [            2.858925843511404,            117.87831115722656,            -0.3320894241333008          ],          "parentMatrix": {            "elements": [              1,              0,              0,              0,              0,              1,              0,              0,              0,              0,              1,              0,              0,              0,              0,              1            ]          },          "parentMatrixWorld": {            "elements": [              1,              0,              0,              0,              0,              1,              0,              0,              0,              0,              1,              0,              0,              0,              0,              1            ]          }        }      },      "mesh": 0    },    {      "children": [        0      ]    }  ],  "bufferViews": [    {      "buffer": 0,      "byteOffset": 0,      "byteLength": 190152,      "target": 34962,      "byteStride": 12    },    {      "buffer": 0,      "byteOffset": 190152,      "byteLength": 190152,      "target": 34962,      "byteStride": 12    },    {      "buffer": 0,      "byteOffset": 380304,      "byteLength": 126768,      "target": 34962,      "byteStride": 8    }  ],  "buffers": [    {      "byteLength": 507072,      "uri": "data:application/octet-stream;base64,"    }  ],  "accessors": [    {      "bufferView": 0,      "componentType": 5126,      "count": 15846,      "max": [        24.877805709838867,        186.1614990234375,        20.135658264160156      ],      "min": [        -19.159954071044922,        117.87832641601562,        -20.799856185913086      ],      "type": "VEC3"    },    {      "bufferView": 1,      "componentType": 5126,      "count": 15846,      "max": [        0.9995973110198975,        0.9998341202735901,        0.9994516372680664      ],      "min": [        -0.9993401765823364,        -1,        -0.9999297261238098      ],      "type": "VEC3"    },    {      "bufferView": 2,      "componentType": 5126,      "count": 15846,      "max": [        0.9819432497024536,        0.9380236864089966      ],      "min": [        0.01805683970451355,        0.017249196767807007      ],      "type": "VEC2"    }  ],  "materials": [    {      "pbrMetallicRoughness": {        "baseColorFactor": [          0.13286832572150142,          0.13286832572150142,          0.13286832572150142,          1        ],        "metallicFactor": 0.5,        "roughnessFactor": 0.5      },      "name": "anubis_head"    }  ],  "meshes": [    {      "primitives": [        {          "mode": 4,          "attributes": {            "POSITION": 0,            "NORMAL": 1,            "TEXCOORD_0": 2          },          "material": 0        }      ]    }  ]}