{
	"asset":{
		"generator":"Khronos glTF Blender I/O v4.1.63",
		"version":"2.0"
	},
	"extensionsUsed":[
		"KHR_materials_specular"
	],
	"scene":0,
	"scenes":[
		{
			"name":"Scene",
			"nodes":[
				0
			]
		}
	],
	"nodes":[
		{
			"mesh":0,
			"name":"anubis_head1",
			"rotation":[
				0.7071068286895752,
				0,
				0,
				0.7071068286895752
			],
			"scale":[
				0.009999999776482582,
				0.009999999776482582,
				0.009999999776482582
			],
			"translation":[
				0,
				-1.159999966621399,
				0
			]
		}
	],
	"materials":[
		{
			"doubleSided":true,
			"extensions":{
				"KHR_materials_specular":{
					"specularColorFactor":[
						2.0,
						2.0,
						2.0
					]
				}
			},
			"name":"anubis_head",
			"pbrMetallicRoughness":{
				"baseColorFactor":[
					0.5,
					0.5,
					0.5,
					1
				],
				"metallicFactor":0.5,
				"roughnessFactor":0.5527864098548889
			}
		}
	],
	"meshes":[
		{
			"name":"Mesh",
			"primitives":[
				{
					"attributes":{
						"POSITION":0,
						"NORMAL":1,
						"TEXCOORD_0":2
					},
					"indices":3,
					"material":0
				}
			]
		}
	],
	"accessors":[
		{
			"bufferView":0,
			"componentType":5126,
			"count":10544,
			"max":[
				24.877805709838867,
				20.135658264160156,
				-117.87832641601562
			],
			"min":[
				-19.159954071044922,
				-20.799856185913086,
				-186.1614990234375
			],
			"type":"VEC3"
		},
		{
			"bufferView":1,
			"componentType":5126,
			"count":10544,
			"type":"VEC3"
		},
		{
			"bufferView":2,
			"componentType":5126,
			"count":10544,
			"type":"VEC2"
		},
		{
			"bufferView":3,
			"componentType":5123,
			"count":15756,
			"type":"SCALAR"
		}
	],
	"bufferViews":[
		{
			"buffer":0,
			"byteLength":126528,
			"byteOffset":0,
			"target":34962
		},
		{
			"buffer":0,
			"byteLength":126528,
			"byteOffset":126528,
			"target":34962
		},
		{
			"buffer":0,
			"byteLength":84352,
			"byteOffset":253056,
			"target":34962
		},
		{
			"buffer":0,
			"byteLength":31512,
			"byteOffset":337408,
			"target":34963
		}
	],
	"buffers":[
		{
			"byteLength":368920,
			"uri":"Anubis.bin"
		}
	]
}
